<?xml version="1.0" encoding="UTF-8" standalone="no"?>
<svg xmlns="http://www.w3.org/2000/svg" viewBox="0 0 1148 799" width="1148" height="799" font-family='Tahoma, Geneva, sans-serif' font-size="12"><defs><marker id="arrow" viewBox="0 0 10 10" refX="9" refY="5" markerWidth="7" markerHeight="7" orient="auto-start-reverse"><path d="M0,0 L10,5 L0,10 Z" fill="#000000"/></marker></defs><rect x="30.0" y="100.0" width="326.0" height="526.0" fill="none" stroke="#000000" stroke-width="1"/><text x="48.0" y="122.0" text-anchor="start" font-size="12" font-weight="bold">FASA 1: Pembentukan Asas Kajian</text><rect x="411.0" y="100.0" width="326.0" height="608.0" fill="none" stroke="#000000" stroke-width="1"/><text x="429.0" y="122.0" text-anchor="start" font-size="12" font-weight="bold">FASA 2: Pembangunan Metodologi dan Instrumen</text><rect x="792.0" y="100.0" width="326.0" height="362.0" fill="none" stroke="#000000" stroke-width="1"/><text x="810.0" y="122.0" text-anchor="start" font-size="12" font-weight="bold">FASA 3: Analisis Data dan Pelaporan</text><rect x="48.0" y="138.0" width="290.0" height="60.0" fill="#ffffff" stroke="#000000" stroke-width="1"/><text x="193.0" y="165.0" text-anchor="middle" font-size="12">Memahami konteks kajian sekolah</text><text x="193.0" y="179.0" text-anchor="middle" font-size="12">rendah luar bandar Sabah</text><rect x="48.0" y="220.0" width="290.0" height="60.0" fill="#ffffff" stroke="#000000" stroke-width="1"/><text x="193.0" y="254.0" text-anchor="middle" font-size="12">Mendefinisikan masalah kajian</text><rect x="48.0" y="302.0" width="290.0" height="60.0" fill="#ffffff" stroke="#000000" stroke-width="1"/><text x="193.0" y="336.0" text-anchor="middle" font-size="12">Sorotan literatur dan teori</text><rect x="48.0" y="384.0" width="290.0" height="60.0" fill="#ffffff" stroke="#000000" stroke-width="1"/><text x="193.0" y="418.0" text-anchor="middle" font-size="12">Mengenal pasti jurang kajian</text><rect x="48.0" y="466.0" width="290.0" height="60.0" fill="#ffffff" stroke="#000000" stroke-width="1"/><text x="193.0" y="500.0" text-anchor="middle" font-size="12">Membangunkan model kajian</text><rect x="48.0" y="548.0" width="290.0" height="60.0" fill="#ffffff" stroke="#000000" stroke-width="1"/><text x="193.0" y="575.0" text-anchor="middle" font-size="12">Membentuk persoalan, objektif</text><text x="193.0" y="589.0" text-anchor="middle" font-size="12">dan hipotesis kajian</text><rect x="429.0" y="138.0" width="290.0" height="60.0" fill="#ffffff" stroke="#000000" stroke-width="1"/><text x="574.0" y="165.0" text-anchor="middle" font-size="12">Reka bentuk kuantitatif:</text><text x="574.0" y="179.0" text-anchor="middle" font-size="12">tinjauan keratan lintang</text><rect x="429.0" y="220.0" width="290.0" height="60.0" fill="#ffffff" stroke="#000000" stroke-width="1"/><text x="574.0" y="247.0" text-anchor="middle" font-size="12">Operasionalisasi konstruk</text><text x="574.0" y="261.0" text-anchor="middle" font-size="12">dan pengukuran</text><rect x="429.0" y="302.0" width="290.0" height="60.0" fill="#ffffff" stroke="#000000" stroke-width="1"/><text x="574.0" y="336.0" text-anchor="middle" font-size="12">Pembangunan soal selidik</text><rect x="429.0" y="384.0" width="290.0" height="60.0" fill="#ffffff" stroke="#000000" stroke-width="1"/><text x="574.0" y="411.0" text-anchor="middle" font-size="12">Penentuan unit analisis dan</text><text x="574.0" y="425.0" text-anchor="middle" font-size="12">reka bentuk persampelan</text><rect x="429.0" y="466.0" width="290.0" height="60.0" fill="#ffffff" stroke="#000000" stroke-width="1"/><text x="574.0" y="493.0" text-anchor="middle" font-size="12">Pra-ujian instrumen: kesahan</text><text x="574.0" y="507.0" text-anchor="middle" font-size="12">kandungan dan muka</text><rect x="429.0" y="548.0" width="290.0" height="60.0" fill="#ffffff" stroke="#000000" stroke-width="1"/><text x="574.0" y="582.0" text-anchor="middle" font-size="12">Kajian rintis</text><rect x="429.0" y="630.0" width="290.0" height="60.0" fill="#ffffff" stroke="#000000" stroke-width="1"/><text x="574.0" y="664.0" text-anchor="middle" font-size="12">Pengumpulan data</text><rect x="810.0" y="138.0" width="290.0" height="60.0" fill="#ffffff" stroke="#000000" stroke-width="1"/><text x="955.0" y="165.0" text-anchor="middle" font-size="12">Saringan data menggunakan</text><text x="955.0" y="179.0" text-anchor="middle" font-size="12">SPSS versi 29</text><rect x="810.0" y="220.0" width="290.0" height="60.0" fill="#ffffff" stroke="#000000" stroke-width="1"/><text x="955.0" y="247.0" text-anchor="middle" font-size="12">Pengujian hipotesis melalui</text><text x="955.0" y="261.0" text-anchor="middle" font-size="12">PLS-SEM dalam SmartPLS</text><rect x="810.0" y="302.0" width="290.0" height="60.0" fill="#ffffff" stroke="#000000" stroke-width="1"/><text x="955.0" y="336.0" text-anchor="middle" font-size="12">Tafsiran dapatan</text><rect x="810.0" y="384.0" width="290.0" height="60.0" fill="#ffffff" stroke="#000000" stroke-width="1"/><text x="955.0" y="411.0" text-anchor="middle" font-size="12">Perbincangan, rumusan</text><text x="955.0" y="425.0" text-anchor="middle" font-size="12">dan pendokumentasian</text><line x1="193.0" y1="198.0" x2="193.0" y2="218.0" stroke="#000000" stroke-width="1" marker-end="url(#arrow)"/><line x1="193.0" y1="280.0" x2="193.0" y2="300.0" stroke="#000000" stroke-width="1" marker-end="url(#arrow)"/><line x1="193.0" y1="362.0" x2="193.0" y2="382.0" stroke="#000000" stroke-width="1" marker-end="url(#arrow)"/><line x1="193.0" y1="444.0" x2="193.0" y2="464.0" stroke="#000000" stroke-width="1" marker-end="url(#arrow)"/><line x1="193.0" y1="526.0" x2="193.0" y2="546.0" stroke="#000000" stroke-width="1" marker-end="url(#arrow)"/><line x1="574.0" y1="198.0" x2="574.0" y2="218.0" stroke="#000000" stroke-width="1" marker-end="url(#arrow)"/><line x1="574.0" y1="280.0" x2="574.0" y2="300.0" stroke="#000000" stroke-width="1" marker-end="url(#arrow)"/><line x1="574.0" y1="362.0" x2="574.0" y2="382.0" stroke="#000000" stroke-width="1" marker-end="url(#arrow)"/><line x1="574.0" y1="444.0" x2="574.0" y2="464.0" stroke="#000000" stroke-width="1" marker-end="url(#arrow)"/><line x1="574.0" y1="526.0" x2="574.0" y2="546.0" stroke="#000000" stroke-width="1" marker-end="url(#arrow)"/><line x1="574.0" y1="608.0" x2="574.0" y2="628.0" stroke="#000000" stroke-width="1" marker-end="url(#arrow)"/><line x1="955.0" y1="198.0" x2="955.0" y2="218.0" stroke="#000000" stroke-width="1" marker-end="url(#arrow)"/><line x1="955.0" y1="280.0" x2="955.0" y2="300.0" stroke="#000000" stroke-width="1" marker-end="url(#arrow)"/><line x1="955.0" y1="362.0" x2="955.0" y2="382.0" stroke="#000000" stroke-width="1" marker-end="url(#arrow)"/><rect x="138.0" y="30.0" width="110.0" height="42.0" rx="21.0" ry="21.0" fill="#ffffff" stroke="#000000" stroke-width="1"/><text x="193.0" y="55.0" text-anchor="middle" font-size="13" font-weight="bold">Mula</text><rect x="900.0" y="727.0" width="110.0" height="42.0" rx="21.0" ry="21.0" fill="#ffffff" stroke="#000000" stroke-width="1"/><text x="955.0" y="752.0" text-anchor="middle" font-size="13" font-weight="bold">Tamat</text><line x1="193.0" y1="72.0" x2="193.0" y2="136.0" stroke="#000000" stroke-width="1" marker-end="url(#arrow)"/><path d="M 338.0 578.0 L 383.5 578.0 L 383.5 78.0 L 574.0 78.0 L 574.0 136.0" fill="none" stroke="#000000" stroke-width="1" marker-end="url(#arrow)"/><path d="M 719.0 660.0 L 764.5 660.0 L 764.5 78.0 L 955.0 78.0 L 955.0 136.0" fill="none" stroke="#000000" stroke-width="1" marker-end="url(#arrow)"/><line x1="955.0" y1="444.0" x2="955.0" y2="725.0" stroke="#000000" stroke-width="1" marker-end="url(#arrow)"/></svg>